# xmcd
#
# Track frame offsets:
#	150
#	17301
#	30576
#	45332
#	60817
#	83092
#	97117
#	112110
#
# Disc length: 1726 seconds
#
# Revision: 0
# Processed by: cddbd v1.5.2PL0 Copyright (c) Steve Scherf et al.
# Submitted via: dBpowerAMP V4.0
#
DISCID=5006bc08
DTITLE=DOM and C'RUM - Bedroom Recording
DYEAR=2009
DGENRE=Blues
TTITLE0=Catfish Blues
TTITLE1=Key to the Highway
TTITLE2=Alabama Blues
TTITLE3=Death Valley Blues
TTITLE4=Shake Your Hips
TTITLE5=Mojo Boogie
TTITLE6=I'm Glad
TTITLE7=Love In Vain
EXTD=
EXTT0=
EXTT1=
EXTT2=
EXTT3=
EXTT4=
EXTT5=
EXTT6=
EXTT7=
PLAYORDER=
